# File created by Blade
# Date/Time:  Fri Jan 16 19:18:57 2015
# Frame Rate: 120.000 fps
#------------------------------------------------------
:FULLY-SPECIFIED
:DEGREES
346
root 19.879244 35.762875 -22.286986 -168.255642 1.009272 -180.222081
Spine -26.893055 5.057357 -0.735139
Head 22.989444 -1.523650 -17.735167
LeftShoulder -17.616401 -47.730002 41.684509
LeftArm 29.929769 -41.976707 1.937349
LeftForeArm -66.194156 -0.000000 89.256331
LeftHand 1.555585 -0.000000 -11.987949
LeftHandThumb1 -26.253704 0.000000 33.147579
RightShoulder -12.423059 26.057723 -64.211171
RightArm 135.268053 64.210184 91.194432
RightForeArm 46.263425 -0.000000 108.359557
RightHand 13.153236 -0.000000 5.219334
RightHandThumb1 -24.326973 -0.000000 -32.862282
LeftUpLeg -2.374710 9.763566 -1.613355
LeftLeg -7.030935 -0.000000 0.000000
LeftFoot -19.387412 25.607825 -18.416891
LeftToeBase 23.528798 -0.000000 -0.000000
RightUpLeg -4.167281 -3.865824 -0.672144
RightLeg -2.492642 -0.000000 0.000000
RightFoot -21.444074 -25.176908 17.506632
RightToeBase 22.805865 -0.000000 -0.000000
347
root 19.881627 35.762689 -22.289717 -168.234908 0.965288 -180.218186
Spine -26.924445 5.022778 -0.756717
Head 22.982211 -1.554729 -17.688102
LeftShoulder -17.589450 -47.748805 41.682254
LeftArm 29.919947 -41.957798 1.958651
LeftForeArm -66.183171 0.000000 89.249635
LeftHand 1.559694 -0.000000 -12.002538
LeftHandThumb1 -26.253704 0.000000 33.147579
RightShoulder -12.400473 25.984439 -64.144680
RightArm 135.444306 64.163671 91.310771
RightForeArm 46.182583 -0.000000 108.278484
RightHand 13.174644 -0.000000 5.313549
RightHandThumb1 -24.326973 -0.000000 -32.862282
LeftUpLeg -2.391844 9.745647 -1.604285
LeftLeg -7.043528 -0.000000 0.000000
LeftFoot -19.363620 25.605983 -18.409834
LeftToeBase 23.448794 -0.000000 -0.000000
RightUpLeg -4.162904 -3.877265 -0.661199
RightLeg -2.519617 -0.000000 0.000000
RightFoot -21.440149 -25.161834 17.564050
RightToeBase 22.709685 -0.000000 -0.000000
348
root 19.885382 35.762054 -22.293090 -168.223720 0.926469 -180.216473
Spine -26.962778 4.977914 -0.781308
Head 23.041256 -1.570755 -17.697541
LeftShoulder -17.527594 -47.757153 41.656210
LeftArm 29.911921 -41.937721 2.002900
LeftForeArm -66.191437 0.000000 89.230287
LeftHand 1.571290 -0.000000 -12.043612
LeftHandThumb1 -26.253704 0.000000 33.147579
RightShoulder -12.306437 25.935558 -64.052258
RightArm 135.592089 64.195899 91.385361
RightForeArm 46.132910 -0.000000 108.204846
RightHand 13.191113 -0.000000 5.345952
RightHandThumb1 -24.326973 -0.000000 -32.862282
LeftUpLeg -2.418548 9.812821 -1.603730
LeftLeg -7.017366 -0.000000 0.000000
LeftFoot -19.353537 25.523493 -18.366581
LeftToeBase 23.483950 -0.000000 -0.000000
RightUpLeg -4.153093 -3.873484 -0.651127
RightLeg -2.535935 -0.000000 0.000000
RightFoot -21.460915 -25.205948 17.535160
RightToeBase 22.839483 -0.000000 -0.000000
349
root 19.888127 35.761454 -22.295354 -168.200695 0.882300 -180.213577
Spine -26.994646 4.936494 -0.801144
Head 23.037785 -1.600217 -17.690533
LeftShoulder -17.478073 -47.767518 41.634154
LeftArm 29.893052 -41.947162 2.051462
LeftForeArm -66.186556 -0.000000 89.208567
LeftHand 1.584868 -0.000000 -12.085719
LeftHandThumb1 -26.253704 0.000000 33.147579
RightShoulder -12.291262 25.960117 -64.027879
RightArm 135.541941 64.192530 91.324205
RightForeArm 46.047743 0.000000 108.159093
RightHand 13.163140 -0.000000 5.355949
RightHandThumb1 -24.326973 -0.000000 -32.862282
LeftUpLeg -2.440114 9.801690 -1.597326
LeftLeg -7.027341 -0.000000 0.000000
LeftFoot -19.356057 25.507874 -18.368408
LeftToeBase 23.534541 -0.000000 -0.000000
RightUpLeg -4.157364 -3.875980 -0.639300
RightLeg -2.549517 -0.000000 0.000000
RightFoot -21.463126 -25.236756 17.538113
RightToeBase 22.806720 -0.000000 -0.000000
350
root 19.890961 35.760424 -22.298018 -168.188348 0.846753 -180.210433
Spine -27.012150 4.905825 -0.816604
Head 23.022636 -1.614260 -17.678446
LeftShoulder -17.412977 -47.781017 41.598012
LeftArm 29.863027 -41.970745 2.112767
LeftForeArm -66.183554 -0.000000 89.173281
LeftHand 1.611958 0.000000 -12.152348
LeftHandThumb1 -26.253704 0.000000 33.147579
RightShoulder -12.276180 25.969454 -63.997718
RightArm 135.530962 64.211750 91.285177
RightForeArm 46.030510 -0.000000 108.095822
RightHand 13.160508 -0.000000 5.417929
RightHandThumb1 -24.326973 -0.000000 -32.862282
LeftUpLeg -2.449025 9.786721 -1.586960
LeftLeg -7.030772 -0.000000 0.000000
LeftFoot -19.343104 25.496974 -18.332939
LeftToeBase 23.539973 -0.000000 -0.000000
RightUpLeg -4.153272 -3.878154 -0.627536
RightLeg -2.563646 -0.000000 0.000000
RightFoot -21.477907 -25.264887 17.536774
RightToeBase 22.838220 -0.000000 -0.000000
351
root 19.893804 35.760029 -22.300093 -168.179833 0.806866 -180.206137
Spine -27.023093 4.873994 -0.835753
Head 23.007210 -1.678624 -17.691019
LeftShoulder -17.362565 -47.822896 41.569701
LeftArm 29.876976 -41.977910 2.146504
LeftForeArm -66.188620 -0.000000 89.134429
LeftHand 1.602122 -0.000000 -12.200147
LeftHandThumb1 -26.253704 0.000000 33.147579
RightShoulder -12.272112 25.987625 -63.973794
RightArm 135.481785 64.242887 91.220176
RightForeArm 46.019893 -0.000000 108.057901
RightHand 13.127594 -0.000000 5.399610
RightHandThumb1 -24.326973 -0.000000 -32.862282
LeftUpLeg -2.460658 9.772075 -1.575329
LeftLeg -7.027127 -0.000000 0.000000
LeftFoot -19.345005 25.489766 -18.315955
LeftToeBase 23.570608 -0.000000 -0.000000
RightUpLeg -4.156348 -3.889400 -0.614400
RightLeg -2.555384 -0.000000 0.000000
RightFoot -21.500430 -25.283167 17.540417
RightToeBase 22.882996 -0.000000 -0.000000
352
root 19.895615 35.759886 -22.302254 -168.169229 0.787280 -180.198917
Spine -27.032055 4.855608 -0.841364
Head 22.980126 -1.685441 -17.701816
LeftShoulder -17.346501 -47.869387 41.549467
LeftArm 29.924052 -41.985695 2.159709
LeftForeArm -66.140257 0.000000 89.067552
LeftHand 1.601264 0.000000 -12.288291
LeftHandThumb1 -26.253704 0.000000 33.147579
RightShoulder -12.288694 26.003535 -63.976032
RightArm 135.444670 64.252198 91.191172
RightForeArm 45.970162 -0.000000 108.024511
RightHand 13.124898 -0.000000 5.464296
RightHandThumb1 -24.326973 -0.000000 -32.862282
LeftUpLeg -2.466776 9.763196 -1.563908
LeftLeg -7.034568 -0.000000 0.000000
LeftFoot -19.341291 25.486257 -18.313357
LeftToeBase 23.555186 -0.000000 -0.000000
RightUpLeg -4.158801 -3.873004 -0.603244
RightLeg -2.562742 -0.000000 0.000000
RightFoot -21.486895 -25.291615 17.539941
RightToeBase 22.982487 -0.000000 -0.000000
353
root 19.898390 35.759580 -22.304050 -168.161449 0.757211 -180.197890
Spine -27.036354 4.819347 -0.852868
Head 22.950261 -1.681305 -17.708759
LeftShoulder -17.342056 -47.916891 41.558854
LeftArm 29.958650 -41.981061 2.160534
LeftForeArm -66.107369 -0.000000 89.025717
LeftHand 1.599540 -0.000000 -12.314516
LeftHandThumb1 -26.253704 0.000000 33.147579
RightShoulder -12.282278 25.947686 -63.932351
RightArm 135.587757 64.296694 91.303119
RightForeArm 45.925502 -0.000000 107.976340
RightHand 13.145699 0.000000 5.492997
RightHandThumb1 -24.326973 -0.000000 -32.862282
LeftUpLeg -2.471604 9.738498 -1.554943
LeftLeg -7.041619 -0.000000 0.000000
LeftFoot -19.338896 25.489573 -18.309216
LeftToeBase 23.508215 -0.000000 -0.000000
RightUpLeg -4.163256 -3.879857 -0.595269
RightLeg -2.551008 -0.000000 0.000000
RightFoot -21.511104 -25.328299 17.551115
RightToeBase 22.836186 -0.000000 -0.000000
354
root 19.900770 35.758088 -22.305998 -168.141678 0.733702 -180.196107
Spine -27.052869 4.789023 -0.883795
Head 22.910266 -1.677046 -17.650614
LeftShoulder -17.329056 -47.923228 41.572748
LeftArm 30.028388 -42.034543 2.139065
LeftForeArm -66.102112 -0.000000 88.954168
LeftHand 1.575308 -0.000000 -12.390449
LeftHandThumb1 -26.253704 0.000000 33.147579
RightShoulder -12.348261 26.287574 -64.069875
RightArm 134.773569 64.333364 90.697154
RightForeArm 45.933561 -0.000000 108.032157
RightHand 13.076192 0.000000 5.533054
RightHandThumb1 -24.326973 -0.000000 -32.862282
LeftUpLeg -2.493787 9.719675 -1.549822
LeftLeg -7.036482 -0.000000 0.000000
LeftFoot -19.349970 25.498098 -18.289572
LeftToeBase 23.528666 -0.000000 -0.000000
RightUpLeg -4.178766 -3.885863 -0.583706
RightLeg -2.546433 -0.000000 0.000000
RightFoot -21.531484 -25.383895 17.456934
RightToeBase 23.015101 -0.000000 -0.000000
355
root 19.903390 35.758193 -22.307192 -168.144453 0.697830 -180.195265
Spine -27.024003 4.744840 -0.885138
Head 22.840011 -1.643032 -17.673240
LeftShoulder -17.402001 -48.014228 41.640438
LeftArm 30.123399 -42.007160 2.067628
LeftForeArm -66.050952 0.000000 88.902570
LeftHand 1.575295 -0.000000 -12.426956
LeftHandThumb1 -26.253704 0.000000 33.147579
RightShoulder -12.418000 26.118078 -64.002570
RightArm 135.154888 64.301625 91.017472
RightForeArm 45.857807 -0.000000 107.969794
RightHand 13.152072 -0.000000 5.579137
RightHandThumb1 -24.326973 -0.000000 -32.862282
LeftUpLeg -2.484189 9.644017 -1.530720
LeftLeg -7.046877 -0.000000 0.000000
LeftFoot -19.350170 25.527890 -18.297272
LeftToeBase 23.559543 -0.000000 -0.000000
RightUpLeg -4.164446 -3.913702 -0.572418
RightLeg -2.558232 -0.000000 0.000000
RightFoot -21.527085 -25.353890 17.550222
RightToeBase 22.768289 -0.000000 -0.000000
356
root 19.906493 35.758327 -22.309178 -168.148391 0.682406 -180.195405
Spine -27.023588 4.707881 -0.909071
Head 22.829452 -1.599198 -17.629525
LeftShoulder -17.407340 -48.021143 41.664293
LeftArm 30.253715 -42.049969 1.977173
LeftForeArm -65.985707 -0.000000 88.844245
LeftHand 1.553222 -0.000000 -12.513606
LeftHandThumb1 -26.253704 0.000000 33.147579
RightShoulder -12.367845 26.013435 -63.904024
RightArm 135.474025 64.350259 91.287740
RightForeArm 45.865978 -0.000000 107.932411
RightHand 13.192910 -0.000000 5.654414
RightHandThumb1 -24.326973 -0.000000 -32.862282
LeftUpLeg -2.482722 9.641942 -1.522810
LeftLeg -7.040227 -0.000000 0.000000
LeftFoot -19.358232 25.521310 -18.307729
LeftToeBase 23.582437 -0.000000 -0.000000
RightUpLeg -4.152750 -3.920604 -0.565844
RightLeg -2.565664 -0.000000 0.000000
RightFoot -21.517264 -25.329693 17.558577
RightToeBase 22.919975 -0.000000 -0.000000
